<svg width="66" height="76" viewBox="0 0 66 76" fill="none" xmlns="http://www.w3.org/2000/svg">
<path d="M25.3736 75.1009C20.2599 75.1009 15.8447 74.1894 12.1278 72.3665C8.43466 70.5436 5.59375 68.0933 3.60511 65.0156C1.61648 61.9143 0.622159 58.4697 0.622159 54.6818C0.622159 51.8883 1.16667 49.4261 2.25568 47.2955C3.36837 45.1411 4.89536 43.1643 6.83665 41.3651C8.80161 39.5421 11.0862 37.7547 13.6903 36.0028L28.9602 26.2372C30.6884 25.1482 31.9077 24 32.6179 22.7926C33.3518 21.5852 33.7188 20.3778 33.7188 19.1705C33.7188 17.8684 33.2098 16.6847 32.1918 15.6193C31.1974 14.554 29.7178 14.0331 27.7528 14.0568C26.4981 14.0568 25.4091 14.3172 24.4858 14.8381C23.5625 15.3589 22.8404 16.0573 22.3196 16.9332C21.8224 17.8092 21.5739 18.8035 21.5739 19.9162C21.5739 21.3603 21.9882 22.84 22.8168 24.3551C23.6454 25.8703 24.758 27.4801 26.1548 29.1847C27.5753 30.8892 29.1496 32.7713 30.8778 34.831L65.7145 74H48.0298L18.875 42.3594C17.2178 40.5128 15.4777 38.4413 13.6548 36.1449C11.8319 33.8485 10.2931 31.339 9.03835 28.6165C7.78362 25.8703 7.15625 22.8873 7.15625 19.6676C7.15625 16.0455 8.00852 12.7666 9.71307 9.83096C11.4176 6.89536 13.8087 4.56345 16.8864 2.83523C19.9877 1.08333 23.598 0.207381 27.7173 0.207381C31.6946 0.207381 35.1274 1.02414 38.0156 2.65767C40.9039 4.29119 43.1293 6.45738 44.6918 9.15625C46.2543 11.8551 47.0355 14.8144 47.0355 18.0341C47.0355 21.4432 46.1951 24.58 44.5142 27.4446C42.8333 30.2855 40.4541 32.8068 37.3764 35.0085L22.4261 45.6974C20.84 46.8338 19.5971 48.053 18.6974 49.3551C17.7978 50.6335 17.348 52.0303 17.348 53.5455C17.348 55.108 17.715 56.4692 18.4489 57.6293C19.2064 58.7893 20.2718 59.7008 21.6449 60.3636C23.018 61.0265 24.6278 61.358 26.4744 61.358C28.9366 61.358 31.3987 60.7779 33.8608 59.6179C36.3229 58.4342 38.572 56.777 40.608 54.6463C42.6439 52.492 44.2775 49.947 45.5085 47.0114C46.7396 44.0521 47.3551 40.8087 47.3551 37.2812H61.3466C61.3466 41.6373 60.8849 45.6856 59.9616 49.4261C59.0384 53.143 57.6534 56.4811 55.8068 59.4403C53.9839 62.3759 51.723 64.8144 49.0241 66.7557C48.1719 67.2292 47.3433 67.679 46.5384 68.1051C45.7334 68.5312 44.9048 68.9811 44.0526 69.4545C41.259 71.4669 38.2287 72.911 34.9616 73.7869C31.7183 74.6629 28.5223 75.1009 25.3736 75.1009Z" fill="#CAA6F7"/>
</svg>
